name C:\Users\r0593348\3dpredictsim\Results\Batchsim_tmt_linear\Pog_s1_tmt_aCst_d02_k800_ig24_pas.mot
datacolumns 128
datarows 4
range 1.10625078 1.13943830
endheader
time	pelvis_tilt	pelvis_list	pelvis_rotation	pelvis_tx	pelvis_ty	pelvis_tz	hip_flexion_l	hip_adduction_l	hip_rotation_l	hip_flexion_r	hip_adduction_r	hip_rotation_r	knee_angle_l	knee_angle_r	ankle_angle_l	ankle_angle_r	subtalar_angle_l	subtalar_angle_r	tmt_angle_l	tmt_angle_r	mtp_angle_l	mtp_angle_r	lumbar_extension	lumbar_bending	lumbar_rotation	arm_flex_l	arm_add_l	arm_rot_l	arm_flex_r	arm_add_r	arm_rot_r	elbow_flex_l	elbow_flex_r	pro_sup_l	pro_sup_r	glut_med1_l/activation	glut_med2_l/activation	glut_med3_l/activation	glut_min1_l/activation	glut_min2_l/activation	glut_min3_l/activation	semimem_l/activation	semiten_l/activation	bifemlh_l/activation	bifemsh_l/activation	sar_l/activation	add_long_l/activation	add_brev_l/activation	add_mag1_l/activation	add_mag2_l/activation	add_mag3_l/activation	tfl_l/activation	pect_l/activation	grac_l/activation	glut_max1_l/activation	glut_max2_l/activation	glut_max3_l/activation	iliacus_l/activation	psoas_l/activation	quad_fem_l/activation	gem_l/activation	peri_l/activation	rect_fem_l/activation	vas_med_l/activation	vas_int_l/activation	vas_lat_l/activation	med_gas_l/activation	lat_gas_l/activation	soleus_l/activation	tib_post_l/activation	flex_dig_l/activation	flex_hal_l/activation	tib_ant_l/activation	per_brev_l/activation	per_long_l/activation	per_tert_l/activation	ext_dig_l/activation	ext_hal_l/activation	ercspn_l/activation	intobl_l/activation	extobl_l/activation	glut_med1_r/activation	glut_med2_r/activation	glut_med3_r/activation	glut_min1_r/activation	glut_min2_r/activation	glut_min3_r/activation	semimem_r/activation	semiten_r/activation	bifemlh_r/activation	bifemsh_r/activation	sar_r/activation	add_long_r/activation	add_brev_r/activation	add_mag1_r/activation	add_mag2_r/activation	add_mag3_r/activation	tfl_r/activation	pect_r/activation	grac_r/activation	glut_max1_r/activation	glut_max2_r/activation	glut_max3_r/activation	iliacus_r/activation	psoas_r/activation	quad_fem_r/activation	gem_r/activation	peri_r/activation	rect_fem_r/activation	vas_med_r/activation	vas_int_r/activation	vas_lat_r/activation	med_gas_r/activation	lat_gas_r/activation	soleus_r/activation	tib_post_r/activation	flex_dig_r/activation	flex_hal_r/activation	tib_ant_r/activation	per_brev_r/activation	per_long_r/activation	per_tert_r/activation	ext_dig_r/activation	ext_hal_r/activation	ercspn_r/activation	intobl_r/activation	extobl_r/activation	
          1.10625078	         -2.92544209	         -2.54826137	          6.26633360	          1.38281348	          0.85482713	         -0.00326344	        -18.79313118	         -2.34080124	          7.21296292	         31.74060113	          3.24621809	         -3.19854168	         -7.19568330	        -14.33647166	          0.61573356	          6.70313719	         10.67312539	         -3.60161374	          1.27448620	          0.04148979	         22.15727600	         -0.10780947	         -2.11775775	          0.93845307	         -2.13163114	          8.51487696	        -13.45937950	         17.67769664	        -10.43424987	        -13.56932353	          6.45384737	         39.51292532	         13.78685359	         86.51662706	         86.51662706	          0.24345074	          0.09254572	          0.06406512	          0.29711566	          0.19043693	          0.09838330	          0.05000500	          0.05000047	          0.05000032	          0.07371847	          0.10354615	          0.11554919	          0.08996740	          0.05000636	          0.05000684	          0.05000178	          0.31776726	          0.11246409	          0.05000384	          0.05000382	          0.05000221	          0.05000231	          0.40810792	          0.65792520	          0.05000049	          0.05000115	          0.05000035	          0.24683109	          0.09359208	          0.09095684	          0.07140879	          0.30716228	          0.41522698	          0.28479407	          0.27963063	          0.28838092	          0.37833334	          0.05000005	          0.05921996	          0.16508986	          0.05000031	          0.05000009	          0.05000029	          0.05000019	          0.05000019	          0.05000026	          0.05921858	          0.05921868	          0.05000038	          0.05921890	          0.05921886	          0.05921321	          0.05921908	          0.05011902	          0.32270528	          0.05000071	          0.05000073	          0.11652396	          0.26037821	          0.11972996	          0.13341427	          0.13352470	          0.05000033	          0.05925455	          0.07513685	          0.05000115	          0.05918192	          0.17169879	          0.05921726	          0.05046203	          0.25563261	          0.21117436	          0.12711291	          0.05001316	          0.16477063	          0.15971106	          0.14350718	          0.05000029	          0.05000024	          0.05000229	          0.05000002	          0.05000057	          0.05000045	          0.60286333	          0.35976960	          0.21042085	          0.35446368	          0.57332318	          0.32617102	          0.06504993	          0.09296901	          0.09664661	
          1.11731329	         -2.91611141	         -2.64613508	          6.54798026	          1.39973648	          0.85370952	         -0.00304726	        -18.56757284	         -2.66281349	          7.01862439	         31.15618553	          3.61198431	         -2.96779345	         -9.34845322	        -14.71319048	         -0.31678246	          6.06539790	         11.67463491	         -4.07579772	          1.20273376	          0.03106886	         23.24012348	         -0.07322949	         -1.89546502	          1.17067592	         -2.21802867	          8.32818978	        -13.47040866	         17.87590058	        -11.60874710	        -13.55734405	          6.37796604	         40.69762507	         13.70546608	         86.51662706	         86.51662706	          0.20555218	          0.07813892	          0.05921839	          0.25086304	          0.16079118	          0.08306780	          0.05001415	          0.05000148	          0.05000511	          0.06224256	          0.08742717	          0.21348266	          0.16700625	          0.07014067	          0.05922495	          0.05922080	          0.26829987	          0.09498712	          0.05003109	          0.05005535	          0.05010385	          0.05921765	          0.34457669	          0.60412815	          0.05921878	          0.05921938	          0.05921838	          0.20840626	          0.16345003	          0.16345244	          0.16345155	          0.25934544	          0.35058742	          0.24045936	          0.23610009	          0.24348864	          0.31943769	          0.05000006	          0.05000118	          0.15852770	          0.05000019	          0.05000006	          0.05000027	          0.06128344	          0.05921924	          0.05000096	          0.05000005	          0.05000025	          0.13233457	          0.05000021	          0.05000024	          0.05000031	          0.05000045	          0.05000035	          0.27246888	          0.05000031	          0.05001910	          0.09838466	          0.21984484	          0.32866089	          0.22200319	          0.14756184	          0.05000221	          0.05003673	          0.06344484	          0.09568371	          0.11532814	          0.14497091	          0.05000025	          0.05000647	          0.41952170	          0.17830035	          0.10732499	          0.05921951	          0.15826135	          0.17873373	          0.14759964	          0.05000046	          0.05000721	          0.05000004	          0.05941785	          0.07595636	          0.07013800	          0.51304802	          0.36628517	          0.25031409	          0.29928346	          0.54995641	          0.27539518	          0.05492344	          0.07849627	          0.08160137	
          1.12837580	         -2.90300464	         -2.74260023	          6.79622087	          1.41689839	          0.85261572	         -0.00283991	        -18.24926458	         -2.96914592	          6.80941538	         30.41680816	          3.91079775	         -2.70072831	        -11.64594283	        -15.34916852	         -1.43901759	          5.57917571	         12.60671101	         -4.58565051	          1.11141865	         -0.01660295	         24.14370303	         -0.19703712	         -1.65510546	          1.40693667	         -2.29287832	          8.05415581	        -13.48126936	         17.99678500	        -12.77202340	        -13.54893859	          6.36461607	         41.84284514	         13.64948214	         86.51662706	         86.51662706	          0.28696618	          0.06597487	          0.05000015	          0.34296911	          0.13576053	          0.07013650	          0.05201263	          0.05000042	          0.05000030	          0.05255327	          0.07381838	          0.18024956	          0.14100827	          0.05922190	          0.05000583	          0.05000209	          0.29684828	          0.08301031	          0.05000159	          0.05000267	          0.05000147	          0.05000107	          0.29093576	          0.56528461	          0.05000029	          0.05000129	          0.05000030	          0.17596310	          0.13800544	          0.13800746	          0.13800671	          0.21897239	          0.29601048	          0.20302635	          0.19934580	          0.20558434	          0.26971012	          0.05000005	          0.10789395	          0.18710860	          0.05000028	          0.05000016	          0.05000028	          0.06907650	          0.05000042	          0.05000010	          0.26619250	          0.27186256	          0.34817832	          0.36321000	          0.23729988	          0.20084233	          0.06946721	          0.05564375	          0.23005291	          0.08165940	          0.05001268	          0.08306907	          0.18562128	          0.27749759	          0.18744372	          0.15170205	          0.05000089	          0.05913613	          0.08614387	          0.19778373	          0.17088955	          0.13028773	          0.05001491	          0.05000081	          0.35421371	          0.15054417	          0.23394912	          0.05000072	          0.13362453	          0.15090999	          0.12462254	          0.05001282	          0.05049926	          0.05689855	          0.05016823	          0.06413218	          0.05921963	          0.57856056	          0.42729946	          0.21198010	          0.51350152	          0.61881742	          0.29895771	          0.07429828	          0.09659429	          0.06889826	
          1.13943830	         -2.88803441	         -2.82687621	          7.00489003	          1.43407974	          0.85157640	         -0.00260418	        -17.81906136	         -3.25053793	          6.59552157	         29.60843821	          4.19500075	         -2.43353331	        -14.09125081	        -15.94252773	         -2.72423475	          5.23093493	         13.47220030	         -5.10993647	          0.99117797	         -0.02477463	         24.76253248	         -0.19700516	         -1.41879320	          1.63542929	         -2.35763235	          7.73226751	        -13.49995940	         18.06882459	        -13.87016283	        -13.53942279	          6.41745835	         42.92050512	         13.58498954	         86.51662706	         86.51662706	          0.24229352	          0.05570447	          0.05000018	          0.28957845	          0.11462643	          0.05921831	          0.07090635	          0.05000033	          0.05000038	          0.05000017	          0.06232721	          0.19286794	          0.15382144	          0.05000415	          0.05006640	          0.08879191	          0.25088043	          0.07009032	          0.05000096	          0.05000586	          0.05000380	          0.05000286	          0.24564501	          0.50475443	          0.05000032	          0.05000124	          0.05000030	          0.14857044	          0.11652409	          0.11652419	          0.11652405	          0.18488432	          0.24992968	          0.17142065	          0.16831314	          0.17358068	          0.22772377	          0.06719647	          0.14196751	          0.15798184	          0.05000129	          0.16692387	          0.11645523	          0.10139096	          0.05000004	          0.05000008	          0.36035867	          0.39317305	          0.44829622	          0.30666934	          0.20040514	          0.26923576	          0.07197949	          0.10945990	          0.19423995	          0.07013485	          0.05000090	          0.07013766	          0.15672538	          0.23431387	          0.23928880	          0.18852591	          0.05000056	          0.05003657	          0.13671625	          0.27421760	          0.22271619	          0.18781760	          0.05000026	          0.05000027	          0.29907244	          0.12710876	          0.22723290	          0.05000009	          0.13643723	          0.21863713	          0.16321438	          0.05000004	          0.05000009	          0.05000001	          0.05000002	          0.05414871	          0.05000089	          0.65645812	          0.36078087	          0.17900439	          0.67762988	          0.64463791	          0.40447152	          0.09164937	          0.08155720	          0.05817270	
